# xmcd
#
# Track frame offsets:
#	150
#	14828
#	34024
#	51089
#	66790
#	81078
#	96674
#	111861
#	127617
#	142785
#	159472
#	173789
#	189156
#	208166
#	222575
#	239527
#	255531
#
# Disc length: 3714 seconds
#
# Revision: 0
# Processed by: cddbd v1.5.2PL0 Copyright (c) Steve Scherf et al.
# Submitted via: dBpowerAMP V4.0
#
DISCID=ef0e8011
DTITLE=Amigos - im herzen jung
DYEAR=1900
DGENRE=
TTITLE0=im herzen jung
TTITLE1=die legende der blauen lagune
TTITLE2=lügst du immer noch
TTITLE3=irgendwann (bist du der alte mann)
TTITLE4=ich ruf für uns den himmel an
TTITLE5=im tal der wilden rosen
TTITLE6=den sternen habe ich erzählt
TTITLE7=ich danke euch
TTITLE8=wenn du einmal traurig bist
TTITLE9=dich schickt der himmel
TTITLE10=er zieht nachts durch die straßen
TTITLE11=dafür schenk' ich dir ein himmelreich
TTITLE12=die liebe meines leben
TTITLE13=nur durch dich ganz allein
TTITLE14=rose im sand
TTITLE15=manchmal wär' ich gern zu hause
TTITLE16=hitmix (im herzen jung)
EXTD=
EXTT0=
EXTT1=
EXTT2=
EXTT3=
EXTT4=
EXTT5=
EXTT6=
EXTT7=
EXTT8=
EXTT9=
EXTT10=
EXTT11=
EXTT12=
EXTT13=
EXTT14=
EXTT15=
EXTT16=
PLAYORDER=
